<svg width="80" height="80" viewBox="0 0 80 80" fill="none" xmlns="http://www.w3.org/2000/svg">
<rect width="80" height="80" rx="40" fill="#DA5C5C"/>
<path d="M56.7359 54.8302C54.0411 54.7678 51.9074 52.5444 51.9702 49.8641C52.033 47.1839 54.2685 45.0617 56.9633 45.1242C59.6581 45.1867 61.7918 47.4101 61.729 50.0903C61.6662 52.7706 59.4307 54.8927 56.7359 54.8302Z" stroke="white" stroke-width="2" stroke-miterlimit="10"/>
<path d="M25.4377 54.8307C22.7421 54.8307 20.5569 52.6574 20.5569 49.9764C20.5569 47.2954 22.7421 45.1221 25.4377 45.1221C28.1332 45.1221 30.3184 47.2954 30.3184 49.9764C30.3184 52.6574 28.1332 54.8307 25.4377 54.8307Z" stroke="white" stroke-width="2" stroke-miterlimit="10"/>
<path d="M47.841 49.8726C47.8438 48.7218 48.0749 47.5828 48.5212 46.5209C48.9675 45.4591 49.6202 44.4954 50.4418 43.685C53.909 40.2508 59.533 40.2508 63.0001 43.685" stroke="white" stroke-width="2" stroke-miterlimit="10" stroke-linecap="round" stroke-linejoin="round"/>
<path d="M16.2581 49.8724C16.2581 45.0145 20.2173 41.0776 25.1015 41.0776C29.9858 41.0776 33.944 45.0154 33.944 49.8732" stroke="white" stroke-width="2" stroke-miterlimit="10" stroke-linecap="round" stroke-linejoin="round"/>
<path d="M35.2079 31.0264H18.785V36.0527H35.2079V31.0264Z" stroke="white" stroke-width="2" stroke-miterlimit="10" stroke-linecap="round" stroke-linejoin="round"/>
<path d="M57.9474 41.078L50.367 26H45.3133" stroke="white" stroke-width="2" stroke-miterlimit="10" stroke-linecap="round" stroke-linejoin="round"/>
<path d="M47.8409 49.9766H33.9439" stroke="white" stroke-width="2" stroke-miterlimit="10" stroke-linecap="round" stroke-linejoin="round"/>
<path d="M35.2079 36.0518C35.2079 36.0518 40.2615 54.8991 50.367 36.0518" stroke="white" stroke-width="2" stroke-miterlimit="10" stroke-linecap="round" stroke-linejoin="round"/>
<path d="M18.7848 36.0518C18.7848 36.0518 14.9941 42.3342 16.258 49.8728" stroke="white" stroke-width="2" stroke-miterlimit="10" stroke-linecap="round" stroke-linejoin="round"/>
</svg>
